<?xml version="1.0" encoding="UTF-8"?>
<svg xmlns="http://www.w3.org/2000/svg" xmlns:xlink="http://www.w3.org/1999/xlink" width="256px" height="256px" viewBox="0 0 256 256" version="1.1">
<g id="surface1">
<path style=" stroke:none;fill-rule:evenodd;fill:rgb(11.372549%,40.392157%,69.411765%);fill-opacity:1;" d="M 256 128 C 256 198.691406 198.691406 256 128 256 C 57.308594 256 0 198.691406 0 128 C 0 57.308594 57.308594 0 128 0 C 198.691406 0 256 57.308594 256 128 Z M 256 128 "/>
<path style=" stroke:none;fill-rule:nonzero;fill:rgb(8.235294%,25.098039%,50.980392%);fill-opacity:1;" d="M 155.441406 252.867188 C 157.71875 252.414062 159.984375 251.898438 162.234375 251.324219 C 166.347656 250.1875 170.40625 248.847656 174.386719 247.304688 C 178.359375 245.757812 182.253906 244.011719 186.054688 242.078125 C 189.855469 240.140625 193.558594 238.015625 197.148438 235.707031 C 200.742188 233.402344 204.214844 230.921875 207.558594 228.273438 C 210.902344 225.621094 214.113281 222.800781 217.175781 219.824219 C 220.238281 216.851562 223.148438 213.726562 225.898438 210.460938 C 228.648438 207.195312 231.230469 203.792969 233.640625 200.269531 C 236.050781 196.75 238.285156 193.105469 240.335938 189.359375 C 242.382812 185.617188 244.242188 181.773438 245.90625 177.839844 C 247.566406 173.914062 249.03125 169.902344 250.289062 165.828125 C 251.308594 162.425781 252.1875 158.976562 252.917969 155.5 L 176.707031 79.292969 C 163.808594 66.34375 146.277344 59.066406 128 59.078125 C 89.992188 59.078125 59.078125 89.992188 59.078125 128 C 59.078125 142.246094 63.429688 155.5 70.863281 166.5 L 70.863281 166.519531 C 72.101562 168.347656 73.421875 170.113281 74.832031 171.804688 L 74.832031 171.824219 C 76.230469 173.527344 77.734375 175.152344 79.292969 176.707031 Z M 155.441406 252.867188 "/>
<path style=" stroke:none;fill-rule:nonzero;fill:rgb(100%,100%,100%);fill-opacity:1;" d="M 128 59.078125 C 89.992188 59.078125 59.078125 89.992188 59.078125 128 C 59.078125 166.007812 89.992188 196.921875 128 196.921875 C 166.007812 196.921875 196.921875 166.007812 196.921875 128 C 196.921875 89.992188 166.007812 59.078125 128 59.078125 Z M 128 68.921875 C 160.6875 68.921875 187.078125 95.3125 187.078125 128 C 187.078125 160.6875 160.6875 187.078125 128 187.078125 C 112.324219 187.097656 97.28125 180.882812 86.195312 169.796875 C 75.109375 158.714844 68.886719 143.675781 68.902344 128 C 68.902344 95.3125 95.3125 68.921875 128 68.921875 Z M 123.078125 78.789062 L 123.078125 114.136719 C 117.375 116.195312 113.230469 121.628906 113.230469 128 C 113.230469 136.09375 119.90625 142.769531 128 142.769531 C 134.371094 142.769531 139.796875 138.625 141.84375 132.921875 L 167.363281 132.921875 L 167.363281 123.078125 L 141.84375 123.078125 C 140.34375 118.921875 137.074219 115.648438 132.921875 114.136719 L 132.921875 78.789062 Z M 128 123.078125 C 130.777344 123.078125 132.921875 125.222656 132.921875 128 C 132.921875 130.777344 130.777344 132.921875 128 132.921875 C 126.6875 132.941406 125.425781 132.429688 124.5 131.5 C 123.570312 130.574219 123.058594 129.3125 123.078125 128 C 123.078125 125.222656 125.222656 123.078125 128 123.078125 Z M 128 123.078125 "/>
</g>
</svg>
